<svg width="17" height="18" viewBox="0 0 17 18" fill="none" xmlns="http://www.w3.org/2000/svg">
<path d="M3.86264 6.23486H0.210327V17.2028H3.86264V6.23486Z" fill="black"/>
<path d="M15.8489 7.23678C15.0817 6.39929 14.067 5.98047 12.8054 5.98047C12.3405 5.98047 11.918 6.03765 11.5379 6.15208C11.158 6.26644 10.8371 6.42689 10.5751 6.63351C10.3132 6.84013 10.1046 7.03194 9.94982 7.20894C9.80259 7.37707 9.65861 7.57291 9.51813 7.79446V6.23485H5.87671L5.88787 6.76617C5.89535 7.12044 5.89904 8.21239 5.89904 10.0422C5.89904 11.8721 5.89167 14.2589 5.87686 17.203H9.51813V11.0824C9.51813 10.7062 9.55848 10.4074 9.63981 10.1859C9.79488 9.8094 10.0289 9.4942 10.3427 9.23975C10.6564 8.98498 11.0455 8.85771 11.5105 8.85771C12.1448 8.85771 12.6117 9.0772 12.9106 9.51622C13.2093 9.9552 13.3587 10.5621 13.3587 11.3369V17.2026H17V10.9166C16.9997 9.30053 16.6163 8.07399 15.8489 7.23678Z" fill="black"/>
<path d="M2.05855 0.955566C1.44622 0.955566 0.95006 1.13462 0.569966 1.49239C0.189911 1.85023 0 2.302 0 2.84813C0 3.38662 0.184445 3.83684 0.553375 4.19829C0.922188 4.55978 1.40923 4.74062 2.01425 4.74062H2.03638C2.65624 4.74062 3.15619 4.55993 3.53613 4.19829C3.91607 3.83684 4.10234 3.38678 4.09501 2.84813C4.08765 2.30204 3.89936 1.85023 3.53055 1.49239C3.16178 1.13447 2.67093 0.955566 2.05855 0.955566Z" fill="black"/>
</svg>
