<?xml version="1.0" encoding="utf-8"?>
<!-- Generator: Adobe Illustrator 23.0.1, SVG Export Plug-In . SVG Version: 6.00 Build 0)  -->
<svg version="1.1" id="Capa_1" xmlns="http://www.w3.org/2000/svg" xmlns:xlink="http://www.w3.org/1999/xlink" x="0px" y="0px"
	 viewBox="0 0 139.9 127" style="enable-background:new 0 0 139.9 127;" xml:space="preserve">
<style type="text/css">
	.st0{fill:#0F69B4;}
	.st1{fill:#EB3C46;}
	.st2{fill:#FFFFFF;}
	.st3{fill:none;}
</style>
<g>
	<g>
		<g>
			<g>
				<rect class="st0" width="57.3" height="127"/>
				<rect x="57.3" class="st1" width="82.6" height="127"/>
				<path class="st2" d="M68.3,120.2c-0.8,0.4-1.5,0.6-2.3,0.6c-1.9,0-2.7-1.3-2.7-3.3c0-1.9,0.9-3.2,2.9-3.2c1,0,1.6,0.2,2,0.6
					l-0.5,0.9c-0.3-0.2-0.9-0.4-1.5-0.4c-1.1,0-1.6,0.8-1.6,2.1c0,1.5,0.5,2.3,1.6,2.3c0.4,0,0.8-0.1,1.1-0.2v-1.1h-0.9l-0.1-0.9h2
					L68.3,120.2L68.3,120.2z"/>
				<path class="st2" d="M73.3,118.4c0,1.5-0.8,2.4-2.1,2.4c-1.4,0-2.1-0.8-2.1-2.4c0-1.3,0.7-2.3,2.1-2.3
					C72.6,116.1,73.3,117.1,73.3,118.4 M72.1,118.4c0-1.1-0.3-1.5-0.9-1.5s-0.9,0.4-0.9,1.5c0,1,0.3,1.5,0.9,1.5
					C71.8,119.9,72.1,119.5,72.1,118.4"/>
				<path class="st2" d="M75.4,116.7c0.2-0.3,0.7-0.6,1.2-0.6c1.1,0,1.8,0.8,1.8,2.3c0,1.6-0.9,2.4-2,2.4c-0.6,0-1-0.3-1.3-0.6
					l-0.2,0.5h-0.6v-6.4h1.2v1.6L75.4,116.7z M75.4,119.5c0.2,0.2,0.5,0.5,0.8,0.5c0.5,0,0.9-0.4,0.9-1.5c0-1.1-0.3-1.5-0.9-1.5
					c-0.3,0-0.6,0.2-0.8,0.4V119.5z"/>
				<path class="st2" d="M79.7,120.7v-3.6l-0.5-0.1v-0.8h1.7v4.5H79.7z M79.6,114.4h1.2v1.1h-1.2V114.4z"/>
				<path class="st2" d="M83,118.8c0,0.7,0.4,1.1,1.2,1.1c0.5,0,0.9-0.2,1.3-0.4l0.2,0.8c-0.4,0.2-1,0.5-1.7,0.5
					c-1.4,0-2.2-0.9-2.2-2.4c0-1.4,0.7-2.3,2.1-2.3c1.4,0,1.9,1,1.9,2.1v0.5L83,118.8L83,118.8z M83.8,117c-0.6,0-0.8,0.5-0.8,1.1
					h1.6C84.6,117.5,84.5,117,83.8,117"/>
				<path class="st2" d="M89.3,117.2c-0.1,0-0.3-0.1-0.6-0.1c-0.3,0-0.6,0.1-0.8,0.3v3.3h-1.2v-4.5h0.8c0,0.2,0.1,0.4,0.1,0.6h0
					c0.1-0.3,0.5-0.7,1.1-0.7c0.2,0,0.4,0,0.5,0.1C89.3,116.5,89.3,116.9,89.3,117.2"/>
				<path class="st2" d="M92.8,120.7V118c0-0.7-0.3-1-0.8-1c-0.3,0-0.6,0.1-0.8,0.3v3.4H90v-4.5h0.8l0.2,0.5
					c0.3-0.3,0.8-0.6,1.4-0.6c1.1,0,1.6,0.7,1.6,1.8v2.8L92.8,120.7L92.8,120.7z"/>
				<path class="st2" d="M99.1,118.4c0,1.5-0.8,2.4-2.1,2.4c-1.4,0-2.1-0.8-2.1-2.4c0-1.3,0.7-2.3,2.1-2.3
					C98.3,116.1,99.1,117.1,99.1,118.4 M97.8,118.4c0-1.1-0.3-1.5-0.9-1.5c-0.6,0-0.9,0.4-0.9,1.5c0,1,0.3,1.5,0.9,1.5
					C97.5,119.9,97.8,119.5,97.8,118.4"/>
				<path class="st2" d="M104.9,116.5c-0.1-0.3-0.1-0.5-0.1-0.8v-1.4h1.2v6.4h-1l-0.1-0.5c-0.2,0.3-0.6,0.6-1.2,0.6
					c-1,0-1.8-0.7-1.8-2.3c0-1.5,0.8-2.4,1.9-2.4C104.3,116.1,104.7,116.3,104.9,116.5 M104.8,117.2c-0.2-0.1-0.5-0.2-0.8-0.2
					c-0.6,0-0.9,0.4-0.9,1.4c0,1.1,0.3,1.5,0.9,1.5c0.3,0,0.6-0.1,0.8-0.4L104.8,117.2L104.8,117.2z"/>
				<path class="st2" d="M108.1,118.8c0,0.7,0.4,1.1,1.2,1.1c0.5,0,0.9-0.2,1.3-0.4l0.2,0.8c-0.4,0.2-1,0.5-1.7,0.5
					c-1.4,0-2.2-0.9-2.2-2.4c0-1.4,0.7-2.3,2.1-2.3c1.4,0,1.9,1,1.9,2.1v0.5L108.1,118.8L108.1,118.8z M109,117
					c-0.6,0-0.8,0.5-0.8,1.1h1.6C109.8,117.5,109.6,117,109,117"/>
				<path class="st2" d="M116.4,120.8c-1.7,0-2.7-1.2-2.7-3.3c0-1.9,0.9-3.2,2.7-3.2c0.8,0,1.6,0.2,2.1,0.5l-0.5,1
					c-0.3-0.2-0.9-0.4-1.5-0.4c-1,0-1.5,0.8-1.5,2.1c0,1.4,0.5,2.2,1.5,2.2c0.6,0,1.2-0.3,1.6-0.6l0.4,1
					C117.9,120.6,117.2,120.8,116.4,120.8"/>
				<path class="st2" d="M119.4,120.7v-6.4h1.2v1.7c0,0.3-0.1,0.6-0.1,0.7c0.3-0.3,0.6-0.6,1.3-0.6c1.3,0,1.7,0.7,1.7,1.8v2.8h-1.2
					V118c0-0.1,0-0.2-0.1-0.3c0-0.5-0.3-0.7-0.7-0.7c-0.3,0-0.6,0.1-0.8,0.3v3.4L119.4,120.7L119.4,120.7z"/>
				<path class="st2" d="M124.8,120.7v-3.6l-0.5-0.1v-0.8h1.7v4.5H124.8z M124.7,114.4h1.2v1.1h-1.2V114.4z"/>
				<path class="st2" d="M127,119.5v-5.2h1.2v5.1c0,0.4,0.2,0.4,0.7,0.4v0.8c0,0-0.3,0.1-0.7,0.1C127.4,120.8,127,120.3,127,119.5"
					/>
				<path class="st2" d="M130.8,118.8c0,0.7,0.4,1.1,1.2,1.1c0.5,0,0.9-0.2,1.3-0.4l0.2,0.8c-0.4,0.2-1,0.5-1.7,0.5
					c-1.4,0-2.2-0.9-2.2-2.4c0-1.4,0.7-2.3,2.1-2.3c1.4,0,1.9,1,1.9,2.1v0.5L130.8,118.8L130.8,118.8z M131.6,117
					c-0.6,0-0.8,0.5-0.8,1.1h1.6C132.4,117.5,132.3,117,131.6,117"/>
			</g>
			<g>
				<g>
					<g>
						<path class="st2" d="M29.8,17.4c0.1-0.1,0.4-0.3,0.2-0.8c-0.1-0.2-0.4-0.2-0.3-0.2c1.4-0.3,2.2-2.4,2.2-3.2
							c0.7,0.7,2.4,0.9,3.6-0.1c0.8-0.7,1.2-2.7-0.2-3.7c-0.7-0.5-1.9-0.5-2.6,0c-0.2-0.4-0.7-0.7-1.1-0.7c0-0.1,0-1.1-0.5-1.7
							c-0.7-0.8-2.7-0.8-3.5,0c-1.4-0.4-3.3,0.3-3.2,2.6c-1-0.4-1.6-0.4-2.1-0.4c-0.5,0-1.2,0.5-1.4,0.8c-0.1,0.1-0.2,0.3-0.3,0.5
							c-0.2,0.3-0.3,0.8-0.2,1.2c0.1,0.8,0.5,1.5,1.1,1.8c0.8,0.4,1.8,0.4,2.2,0.3c0.3-0.1,0.6-0.2,0.9-0.5c0.1-0.1,0.2-0.2,0.3-0.3
							c0,0.2-0.1,1.3,1.1,1.8c0,0.1,0,0.1,0,0.2c0.4,1.5,1.4,1.3,1.4,1.4c-0.4,0.3-0.3,0.7-0.2,0.9c0.7-0.2,1.2-0.2,1.4-0.2
							C28.7,17.2,29.2,17.2,29.8,17.4z"/>
						<g>
							<polygon class="st3" points="28.3,18.9 27.4,21.9 24.2,21.9 24.2,21.9 26.8,23.8 25.8,26.8 28.3,24.9 30.9,26.8 29.8,23.8 
								32.5,21.9 32.5,21.9 29.2,21.9 							"/>
							<path class="st2" d="M33.3,21.9c0-1.5,1-2.7,1-2.7c0.1-0.1,0.1-0.2,0.1-0.3c0-0.1-0.1-0.2-0.1-0.2c-0.3-0.2-0.9-0.6-0.9-0.6
								l-0.1,0h-0.1c-0.1,0-0.1,0-0.2,0.1c-0.2,0.1-0.5,0.4-1.1,0.4c-0.1,0-0.2,0-0.3,0c-0.3,0-0.8-0.3-0.8-0.3
								c-0.2-0.1-0.4-0.2-0.5-0.2l0,0c-0.8-0.3-1.6-0.4-1.7-0.4c-0.2,0-0.9,0-1.7,0.4l0,0c0,0-0.1,0.1-0.2,0.1L26,18.4
								c-0.2,0.1-0.4,0.2-0.6,0.2c-0.1,0-0.2,0-0.3,0c-0.6,0-0.9-0.3-1.1-0.4c-0.1-0.1-0.1-0.1-0.2-0.1l0,0l0,0c0,0-0.7,0.4-0.9,0.6
								c0,0-0.1,0.1-0.2,0.3c0,0.1,0,0.2,0.1,0.3c0,0,1,1.2,1,2.7c0,0.2,0.1,1.1-0.7,2.4c0,0.1-0.9,1.6,0,3c0,0,0.7,1.3,2.7,1.3
								c0.2,0,1.7,0,2.2,1c0,0,0.3,0.4,0.4,0.6l0.1,0.2l0.1-0.2c0.1-0.2,0.3-0.6,0.4-0.6c0.5-0.9,2-1,2.2-1c2,0,2.7-1.3,2.7-1.3
								c1-1.4,0.1-3,0.1-3C33.2,23,33.2,22.1,33.3,21.9z M32.5,21.9l-2.6,1.9l1,3l-2.5-1.9l-2.5,1.9l1-3l-2.6-1.9l0,0h3.2l0.9-3
								l0.9,3L32.5,21.9L32.5,21.9z"/>
							<g>
								<path class="st3" d="M19.6,36.4c1.4,1.5,3.5,0.7,3.5,0.7c0.3,0,0.5-1.1,0.6-1.9c-1.2-0.2-2.4-0.4-3.6-0.7
									C19.7,35.5,19.6,36.4,19.6,36.4z"/>
								<path class="st3" d="M19.2,30.2c0,0-0.1-0.1-0.2-0.1c-0.2,0-0.3,0.1-0.5,0.1c-0.2,0-1.6-1.2-1.7-1.2
									c-0.3-0.2-0.8-0.5-1.1-0.8c-0.2-0.2,0-0.5-0.1-0.8c0-0.2-0.3-0.7-0.7-0.8c-0.1,0.5-0.7,2.1-2.7,2.5
									c-0.3,1.1,0.2,3.1,0.4,3.4c0.2,0,0.4,0.1,0.5,0.2c0-0.4,0.1-0.7,0.1-0.7c0.6-1.1,1.8-0.8,1.8-0.8c0.5,0.1,0.5,0.5,0.5,0.5
									c0.2,0.9-0.6,1-0.6,1c-0.5,0-0.5-0.4-0.5-0.4c-0.1-0.4,0.5-0.4,0.5-0.4c-0.5-0.9-2.1,0.6-1,1.8c0.1,0.1,0.2,0,0.2,0
									c3.1-1.5,3.6-2.2,3.6-2.2c0.7-0.6,1.2-0.9,1.5-1.2C19.3,30.3,19.2,30.2,19.2,30.2z"/>
								<path class="st3" d="M33.8,17.8c0.1,0,0.1,0.1,0.2,0.1C34,17.9,33.9,17.9,33.8,17.8z"/>
								<path class="st3" d="M34.8,18.6c-0.1-0.1-0.2-0.2-0.3-0.3C34.6,18.4,34.7,18.5,34.8,18.6L34.8,18.6z"/>
								<path class="st3" d="M34.1,18.1c0.1,0.1,0.2,0.2,0.3,0.2C34.3,18.2,34.2,18.1,34.1,18.1z"/>
								<path class="st3" d="M19,35.9c0.1-0.1,0.2-0.7,0.2-0.7c0.1-0.3,0.2-0.6,0.3-0.8c-0.3-0.1-0.7-0.2-1-0.3
									C18.5,35.1,19,35.9,19,35.9z"/>
								<path class="st3" d="M33.6,35.2c0.1,0.8,0.3,1.8,0.6,1.8c0,0,2.1,0.8,3.5-0.7c0,0-0.1-0.9-0.5-1.9
									C36,34.8,34.8,35,33.6,35.2z"/>
								<path class="st3" d="M38,35.2c0,0,0.1,0.5,0.2,0.7c0,0,0.4-0.8,0.5-1.8c-0.3,0.1-0.7,0.2-1,0.3C37.8,34.6,38,34.9,38,35.2z"
									/>
								<path class="st3" d="M22.6,32.4c-0.7,0-1.2,0.3-1.6,0.7c0.8,0.2,1.7,0.3,2.7,0.5C23.5,32.3,22.6,32.4,22.6,32.4z"/>
								<path class="st3" d="M36.7,32.9c0.6-0.2,1.2-0.3,1.6-0.4c-0.1-0.2-0.2-0.3-0.3-0.5c0,0-1.8-2.1-4.9-0.9
									c-0.1,0,0.1,0.5,1,0.7C34.2,31.7,35.6,31.8,36.7,32.9z"/>
								<path class="st3" d="M34.6,32.4c0,0-0.9,0-1.1,1.1c1-0.1,1.9-0.3,2.7-0.5C35.8,32.6,35.3,32.4,34.6,32.4z"/>
								<path class="st3" d="M25.8,31.6c-0.2-0.3-0.6-0.3-0.6-0.3c-0.5,0-0.5,1.1-0.7,2.3c1,0.1,2,0.2,3.2,0.2
									C27.2,32.8,26.2,32.2,25.8,31.6z"/>
								<path class="st3" d="M19.2,31.9c-0.1,0.2-0.2,0.3-0.3,0.5c0.4,0.1,1,0.3,1.6,0.4c1.1-1.1,2.5-1.2,2.6-1.2
									c0.9-0.2,1.1-0.7,1-0.7C20.9,29.8,19.2,31.9,19.2,31.9z"/>
								<path class="st3" d="M32,31.3c0,0-0.3,0-0.6,0.3c-0.4,0.5-1.5,1.2-1.9,2.2c1.1,0,2.2-0.1,3.2-0.2
									C32.6,32.4,32.5,31.3,32,31.3z"/>
								<path class="st2" d="M50.8,34.4c-0.3-0.4-1.2-0.2-1.2-0.2c0.5-1.4-0.8-1.8-0.8-1.8c-0.5-0.1-0.8,0-1,0.1c0,0,0,0,0,0
									c0,0,0,0,0,0c0,0-0.1,0-0.1,0.1c-0.1,0.1-0.2,0.3-0.2,0.5c0,0.4,0.3,0.7,0.7,0.7c0.1,0,0.3,0,0.4-0.1
									c0.1-0.1,0.2-0.2,0.3-0.4c0.2,0.1,0.2,0.3,0.2,0.3c0.4,1.2-1,1.6-1,1.6c-2.9,0.9-4.8-0.6-4.8-0.6l0.5-0.3
									c0.2-0.1,0.3-0.1,0.5-0.1c0,0,0,0.1,0,0.1c0,0.3,0.3,0.6,0.6,0.6c0.3,0,0.6-0.3,0.6-0.6c0-0.2-0.1-0.4-0.1-0.4
									c-0.3-0.5-1.5-0.2-1.5-0.2c0.4-1,0-1.7,0-1.7c-0.6-1.1-1.8-0.8-1.8-0.8c-0.5,0.1-0.5,0.5-0.5,0.5c-0.2,0.9,0.6,1,0.6,1
									c0.5,0,0.5-0.4,0.5-0.4c0.1-0.4-0.5-0.4-0.5-0.4c0.5-0.9,2.1,0.6,1,1.8c-0.1,0.1-0.2,0-0.2,0c-1.8-0.9-2.7-1.5-3.2-1.8
									c0-0.5-0.5-0.8-0.4-0.9c0.1,0,0.3,0.1,0.5-0.1c0.1-0.1,0.2-0.9,0.3-1.4c1.6,0.7,3,0.5,3.3,0.4c0.1-0.1,0.3-0.2,0.3-0.4
									c0-0.6-1.6-4.3-1.6-5.5c0.8,0.4,1.2-0.8,1.4-1.1c1,0.5,1.4,9.9,2.2,10.2c0.4,0.2,0.5-0.5,0.6-0.6c1.3-4.2,1.3-8.3,1.2-9.7
									c-0.1-2.2-0.3-4.1-0.8-5.9c-0.3-1.1-0.9-3.3-2.4-3.6c-0.7-0.1-1.2,0.5-1.2,1c0,0.5,0.3,0.7,0.2,1.2c-0.2,0.3-0.4,0.7-0.4,1
									c-0.1,0.3,0.2,0.5,0.1,0.9c-0.5-0.1-0.7,0.3-1.4,0.1c0.5-0.2,0.5-1.5-0.1-1.8c-0.1,0-0.2,0-0.2-0.1c0,0,0.2-0.2,0.3-0.4
									c0.3-0.7,0.3-1.3,0.1-1.7c0.2,0,0.5-0.4,0.5-0.8l0,0c0,0,0,0,0,0v0c0-0.1,0-0.4,0.1-0.7c0-0.1,0-0.2-0.1-0.2
									c-0.1,0-0.2,0-0.2,0.1c-0.1,0.3-0.5,0.1-0.3-0.2c0-0.1,0-0.2-0.1-0.2c-0.1,0-0.2,0-0.2,0.1c-0.1,0.3-0.5,0.1-0.3-0.2
									c0-0.1,0-0.2-0.1-0.2c-0.1,0-0.2,0-0.2,0.1c-0.1,0.3-0.5,0.1-0.3-0.2c0-0.1,0-0.2-0.1-0.2c-0.1,0-0.2,0-0.2,0.1
									c-0.1,0.3-0.3,0.4-0.4,0.6c-0.3,0.1-0.2,0.4-0.2,0.7c-0.6-0.1-1,0.3-1.1,0.7h-0.1c-0.5,0-1,0.3-0.9,0.7
									c0,0.3,0.3,0.6,0.4,0.6c0.1,0,0-0.3,0.2-0.3c0.2,0,0.6,0.2,0.6,0.4c0,0.3-0.2,0.9,0.6,1c0,0,0,0.1,0,0.3c-0.3,0-0.4,0-0.7,0
									c-0.5,0.1-1.2,0.4-1.4,0.9c0,0.1,0,0.3,0,0.4c0,0.1,0.1,0.2,0.1,0.4c0,0.1-0.1,0.2-0.2,0.2c-0.2,0.2-0.6,0.4-1,0.5
									c-0.4,0-0.8-0.2-0.9-0.4c-0.5-0.7,0.2-1.9,0.1-2.3c0-1.2-1.5-0.5-2.1-0.2c-0.7,0.4-1.3,1-1.7,1.5c-0.3,0.3-0.6,0.7-0.7,1.1
									c0,0.1-0.1,0.1-0.1,0.1c0.3,0.1,0.8,0.3,1.3,0.3c0,0,0.8,0.1,1.4-0.4c0,0,0.1-0.1,0.2-0.1c0.1,0,0.2,0,0.2,0.1
									c0,0,0.1,0.1,0.2,0.1c0.1,0,0.1,0.1,0.2,0.1c0,0,0.1,0.1,0.1,0.1c0.1,0.1,0.2,0.2,0.3,0.2c0,0,0,0,0.1,0
									c0.1,0.1,0.2,0.2,0.3,0.3l0,0c0.1,0.1,0.2,0.2,0.3,0.2l0,0c0,0,0,0,0,0.1c0,0,0,0.1-0.1,0.1c0,0-0.1,0.1-0.2,0.2
									c-0.2,0.3-0.5,0.7-0.8,1.3c0.3,0.5,0.7,1.1,1.4,1.1c0.5,0,0.8-0.3,0.8-0.6c0,0,0,0,0,0c0.1-0.1,0.4,1.5,0.7,2
									c-0.4,0.2-0.9,0.7-0.6,2.3c-0.3-0.2-0.9-0.7-1.1-0.9c-0.2-0.3-0.5-1.1-1.4-1.2c0.1,0.4,0.3,0.8,0.6,1.3c0,0,0.5,1,0.4,2.1
									c0.4-0.4,0.3-1.4,0.3-1.4c0,0,0.1,0,0.1,0c0.1,0,0.4,0.7,1.1,0.9c0.8,1.4,1.8,2.4,2.7,2.9c0,0.3,0,1.2-0.2,1.2
									c-0.7,0.2-1.4-0.3-2-0.3c-0.1,0-0.1,0-0.1,0c-2.7-1.3-6.3,1.5-6.9,2.1c-0.3,0.3-0.7-0.1-0.7-0.1c-0.2-0.3-0.5-0.4-0.8-0.4
									c-0.3,0-0.6,0.1-0.8,0.4c0,0-0.4,0.4-0.7,0.1c-0.6-0.5-3.8-3-6.5-2.2c0-0.1-0.4-0.2-0.5-0.3c-0.2-0.1-0.4-0.2-0.5-0.3
									c-0.3-0.1-0.8-0.1-1.1-0.1c-0.1,0-0.3-0.1-0.4-0.2c-0.4-0.3-0.9-0.6-1.2-1c0-0.1-0.1-0.2-0.2-0.2c-0.1-0.2-0.2-0.3-0.3-0.6
									c-0.1-0.5,0.1-1.1,0.2-1.6c0.1-0.4,0-0.4,0.1-0.8c1.7-0.6,2.4-1.9,2.8-2.5c0-0.1,0.1-0.3,0.1-0.3c0.1,0,0.1,0,0.2,0
									c0.7,0,1.1-0.4,1.9-0.3c0,0,0.1,0.4,0.6,0.5c0,0.5,0,0.9,0.2,1.3c0,0.1,0.1,0.1,0.1,0.2c0.3-0.8,0.4-1.4,0.4-1.8
									c0,0,0-0.1-0.1-0.1c-0.2-0.8-0.5-1-0.9-1.3c-0.2-0.1-0.4-0.1-0.5-0.3c-0.3-0.2-0.5-0.4-0.7-0.7c0,0,0.1-0.1,0.2-0.2
									c0.5-0.5,0.7-1.2,0.9-2c0.4-0.5,1.4-0.3,1.7-0.2c0.1,0,0.3,0,0.3,0.1c0.1,0.1,0.1,0.2,0.3,0.3c0.2,0.1,0.3,0,0.5,0
									c0.1,0.1,0.1,0.2,0.2,0.3c0,0,0.1,0.1,0.2,0.2c0.5,0,1.1-0.3,1.4-0.4c0,0-0.1,0-0.1-0.1c-0.2-0.3-0.5-0.6-0.8-0.6
									c-0.4-0.1-0.5-0.4-0.8-0.5c-0.1,0-0.4-0.1-0.5,0c-0.8,0.1-1.4-0.2-2.1-0.3c-0.7,0-0.7,0.4-1,0.8c-0.1,0.1-0.2,0.3-0.3,0.4
									c-0.2,0.2-0.4,0.2-0.7,0.4l-0.1-0.3c-0.1-0.2-0.2-0.5-0.3-0.7c-0.4-0.6-0.8-1.1-1.7-1.3c-0.2-0.1-0.2-0.1-0.3-0.2
									c-0.1-0.1,0-0.2,0-0.3c0.2-0.1,0.7-0.1,0.9-0.2c0.7-0.3,0.4-0.9,0.2-0.9c-0.3-0.1-1-0.2-1.1-0.3c-0.2-0.1-0.4-0.6-0.7-0.7
									c-0.3-0.1-0.2-0.6-0.5-0.7c-0.1,0-0.3,0-0.5,0.1c0-0.1-0.1-0.7-0.4-0.8c-0.2-0.1-0.3,0.1-0.3,0.2c0,0.1,0.3,0.3,0.4,0.8
									c-0.1,0-0.1,0.1-0.2,0.1c0-0.2-0.1-0.5-0.4-0.7c-0.2-0.1-0.3,0.1-0.3,0.2c0,0.1,0.3,0.3,0.4,0.7c-0.1,0.1-0.1,0.1-0.2,0.2
									c-0.5-0.1-0.6-0.4-0.7-0.5c-0.1,0-0.3,0-0.2,0.3c0.1,0.2,0.5,0.4,0.7,0.4c0,0-0.1,0.1-0.1,0.1c-0.5-0.1-0.7-0.4-0.8-0.5
									c-0.1,0-0.3,0-0.2,0.3c0.2,0.3,0.8,0.5,0.8,0.5c-0.1,0.1-0.1,0.3-0.1,0.4c-0.4,0-1.1,0.2-1,0.7c0.1,0.1,0.6-0.3,1.1-0.1
									c0.3,0.5,0.8,0.5,0.9,0.6c0.2,0.1,0.2,0.4,0.3,0.6c0.1,0.4,0.4,0.7,0.6,1.1c0.3,0.4,0.5,0.8,0.8,1.1c0,0.1,0.1,0.2,0,0.3
									c-0.3,0.5-1.2,1-1.6,1.4c-0.4,0.3-3.9,3-4.4,4.2c-0.1,0.3-0.2,0.6-0.1,1c-0.2,0.1-0.7,0.3-0.8,0.1c-0.3-0.4,0.3-0.7,0.1-1
									c-0.1-0.1-0.3-0.2-0.4-0.1c-0.9,0.6-0.4,1.7,0.1,2c0.6,0.3,0.7-0.4,1.2-0.1c0.1,0.1,1.2,1.1,1,1.9c0,0-0.1,0.2-0.1,0.2
									c-0.2,0.3-0.7,0.5-0.9,0.8c-0.6,0.4,0.6,2.7,0.5,3.9c-0.1,0.5,0.4,0.4,0.7,1.1c-0.3,0-0.5,0.1-0.7,0.3c0,0-0.1,0.1-0.1,0.4
									c0,0.3,0.3,0.6,0.6,0.6s0.6-0.3,0.6-0.6c0,0,0-0.1,0-0.1c0.1,0,0.3,0,0.5,0.1l0.5,0.3c0,0-1.8,1.5-4.8,0.6
									c0,0-1.3-0.4-1-1.6c0,0,0.1-0.2,0.2-0.3c0,0.2,0.1,0.3,0.3,0.4c0.1,0.1,0.2,0.1,0.4,0.1c0.4,0,0.7-0.3,0.7-0.7
									c0-0.2-0.1-0.3-0.2-0.5c0,0-0.1,0-0.1-0.1c0,0,0,0,0,0c0,0,0,0,0,0c-0.2-0.1-0.5-0.2-1-0.1c0,0-1.3,0.4-0.8,1.8
									c0,0-0.9-0.2-1.2,0.2c0,0-0.1,0.1-0.1,0.3v0v0c0,0.1,0,0.2,0.1,0.3c0.1,0.1,0.2,0.2,0.4,0.2c0.2,0,0.3-0.1,0.4-0.2
									c0,0,0,0,0,0c0,0,0.1-0.1,0.3,0.1c2,2,5.1,1.2,6.9-0.2c0,0,1-1,2.1-1.6c0.4,0.2,0.9,0.3,1.3,0.5c0,0.6,0.1,1.5,0.8,2.6
									c0,0-0.5,0.9-1.3,0.4c0,0-0.6-0.5-0.1-1.1c0,0,0.4-0.3,0.5,0.1c-0.2,0-0.3,0.2-0.3,0.3c0,0.2,0.2,0.3,0.3,0.3
									c0.2,0,0.3-0.1,0.3-0.3c0-0.1,0-0.5-0.3-0.7c0,0-0.3-0.3-0.8-0.2c-0.7,0.1-1.2,1.7,0.3,2.3c0,0,1.2,0.5,1.7-0.3
									c0,0,0-0.1,0.2,0.1c1.2,1.2,3.9,0.8,5,0c0,0,0.3-0.2,0.6-0.3c0,0.5,0.4,0.8,0.8,0.8c0.5,0,0.8-0.4,0.8-0.8
									c0-0.4-0.3-0.8-0.7-0.8c0,0-0.6-0.2-1.3,0.3c0,0-0.8,0.5-0.8,0.4c0.3-0.4,0.5-1,0.6-1.7c1.2,0.1,2.4,0.2,3.7,0.2
									c0,0.4-0.1,0.8-0.2,1.2c0,0-0.4,0.2-0.5,0.5c0,0,0,0.2,0.3,0.5c0,0,0.3,0.3,0.4,0.6c0,0,0,0.3,0.5,0.3c0,0,0.1,0,0.1,0
									c0,0,0.1,0,0.1,0c0.5,0,0.5-0.3,0.5-0.3c0.1-0.2,0.4-0.6,0.4-0.6c0.4-0.3,0.3-0.5,0.3-0.5c0-0.3-0.5-0.5-0.5-0.5
									c-0.1-0.3-0.2-0.8-0.2-1.2c1.3,0,2.5-0.1,3.7-0.2c0.1,0.6,0.3,1.2,0.6,1.7c0,0.1-0.8-0.4-0.8-0.4c-0.8-0.5-1.3-0.3-1.4-0.3
									c-0.4,0.1-0.7,0.4-0.7,0.8c0,0.5,0.4,0.8,0.8,0.8c0.5,0,0.8-0.4,0.8-0.8c0.3,0.1,0.6,0.3,0.6,0.3c1.1,0.8,3.8,1.1,5,0
									c0.2-0.2,0.2-0.1,0.2-0.1c0.6,0.9,1.7,0.3,1.7,0.3c1.5-0.6,1-2.2,0.3-2.3c-0.5-0.1-0.8,0.2-0.8,0.2
									c-0.3,0.3-0.3,0.6-0.3,0.7c0,0.2,0.2,0.3,0.3,0.3c0.2,0,0.3-0.1,0.3-0.3c0-0.2-0.1-0.3-0.3-0.3c0.2-0.4,0.5-0.1,0.5-0.1
									c0.5,0.6-0.1,1.1-0.1,1.1c-0.8,0.5-1.3-0.4-1.3-0.4c0.7-1.1,0.8-2,0.8-2.6c0.4-0.2,0.9-0.3,1.3-0.5c1.1,0.6,2.1,1.6,2.1,1.6
									c1.8,1.4,5,2.2,6.9,0.2c0.2-0.2,0.3-0.1,0.3-0.1c0,0,0,0,0,0c0.1,0.1,0.2,0.2,0.4,0.2c0.2,0,0.3-0.1,0.4-0.2
									c0.1-0.1,0.1-0.2,0.1-0.3v0v0C50.9,34.5,50.8,34.4,50.8,34.4z M14.3,33.8c0,0-0.1,0.1-0.2,0c-1-1.3,0.5-2.7,1-1.8
									c0,0-0.6,0-0.5,0.4c0,0,0,0.4,0.5,0.4c0,0,0.7-0.1,0.6-1c0,0-0.1-0.4-0.5-0.5c0,0-1.3-0.4-1.8,0.8c0,0-0.1,0.3-0.1,0.7
									c-0.2-0.1-0.3-0.2-0.5-0.2c-0.2-0.3-0.7-2.3-0.4-3.4c2-0.4,2.6-2.1,2.7-2.5c0.4,0.1,0.6,0.6,0.7,0.8c0,0.3-0.1,0.5,0.1,0.8
									c0.2,0.3,0.7,0.6,1.1,0.8c0.1,0.1,1.6,1.2,1.7,1.2c0.2,0,0.3-0.1,0.5-0.1c0.1,0,0.1,0.1,0.2,0.1c0,0,0.1,0.1,0.3,0.2
									c-0.4,0.3-0.9,0.6-1.5,1.2C17.9,31.6,17.4,32.2,14.3,33.8z M19.2,35.2c0,0-0.1,0.5-0.2,0.7c0,0-0.4-0.8-0.5-1.8
									c0.3,0.1,0.7,0.2,1,0.3C19.4,34.6,19.3,34.9,19.2,35.2z M23.1,37c0,0-2.1,0.8-3.5-0.7c0,0,0.1-0.9,0.5-1.9
									c1.2,0.3,2.4,0.5,3.6,0.7C23.6,36,23.4,37,23.1,37z M21,33c0.4-0.4,0.9-0.7,1.6-0.7c0,0,0.9,0,1.1,1.1
									C22.7,33.4,21.8,33.2,21,33z M23.1,31.7c-0.1,0-1.5,0.1-2.6,1.2c-0.6-0.2-1.2-0.3-1.6-0.4c0.1-0.2,0.2-0.3,0.3-0.5
									c0,0,1.8-2.1,4.9-0.9C24.2,31,23.9,31.5,23.1,31.7z M24.5,33.6c0.1-1.3,0.2-2.3,0.7-2.3c0,0,0.3,0,0.6,0.3
									c0.4,0.5,1.5,1.2,1.9,2.2C26.6,33.8,25.5,33.7,24.5,33.6z M29.5,33.8c0.5-1,1.6-1.7,1.9-2.2c0.2-0.3,0.6-0.3,0.6-0.3
									c0.5,0,0.5,1.1,0.7,2.3C31.7,33.7,30.7,33.8,29.5,33.8z M33.1,31c3.1-1.2,4.9,0.9,4.9,0.9c0.1,0.2,0.2,0.3,0.3,0.5
									c-0.4,0.1-1,0.3-1.6,0.4c-1.1-1.1-2.5-1.2-2.6-1.2C33.3,31.5,33.1,31,33.1,31z M34.6,32.4c0.7,0,1.2,0.3,1.6,0.7
									c-0.8,0.2-1.7,0.3-2.7,0.5C33.7,32.3,34.6,32.4,34.6,32.4z M34.1,37c-0.3,0-0.5-1.1-0.6-1.8c1.2-0.2,2.4-0.4,3.6-0.7
									c0.4,1,0.5,1.9,0.5,1.9C36.2,37.9,34.1,37,34.1,37z M38.3,35.9c-0.1-0.1-0.2-0.7-0.2-0.7c-0.1-0.3-0.2-0.6-0.3-0.8
									c0.3-0.1,0.7-0.2,1-0.3C38.7,35.1,38.3,35.9,38.3,35.9z"/>
							</g>
						</g>
					</g>
				</g>
			</g>
		</g>
	</g>
	<g>
		<path class="st2" d="M70.6,20.8l-0.2-6.6h0C70.2,15,70.1,15.6,70,16l-1.1,4.7h-2.3L65.5,16c-0.1-0.5-0.2-1.1-0.4-1.9h0L65,20.8
			h-1.4l0.3-7.9h2.6c0,0,0.9,4,1.3,6.5h0c0.5-2.5,1.6-6.5,1.6-6.5H72l0.3,7.9H70.6z"/>
		<path class="st2" d="M74.1,20.8v-4.6L73.4,16v-1h2.2v5.7H74.1z M74,12.7h1.5v1.4H74V12.7z"/>
		<path class="st2" d="M80.5,20.8v-3.4c0-0.9-0.3-1.3-1-1.3c-0.4,0-0.7,0.2-1,0.3v4.3H77V15h1l0.2,0.7c0.3-0.4,1-0.8,1.8-0.8
			c1.4,0,2,0.9,2,2.3v3.5C82.1,20.8,80.5,20.8,80.5,20.8z"/>
		<path class="st2" d="M83.8,20.8v-4.6L83.1,16v-1h2.2v5.7H83.8z M83.7,12.7h1.5v1.4h-1.5V12.7z"/>
		<path class="st2" d="M88,16.6c0,0.9,2.5,0.6,2.5,2.5c0,1-0.8,1.8-2.3,1.8c-0.7,0-1.3-0.2-1.7-0.4l0.3-1.1c0.3,0.2,0.8,0.4,1.4,0.4
			c0.5,0,0.8-0.3,0.8-0.6c0-1-2.4-0.7-2.4-2.6c0-0.8,0.6-1.6,2.2-1.6c0.6,0,1.2,0.1,1.6,0.3l-0.2,1.1c-0.4-0.2-0.9-0.3-1.4-0.3
			C88.3,16,88,16.2,88,16.6z"/>
		<path class="st2" d="M93.8,20.9c-1,0-1.7-0.5-1.7-1.9v-2.8h-0.9V15h0.9v-1l1.5-0.5V15h1.5v1.1h-1.5v2.8c0,0.4,0.2,0.7,0.6,0.7
			c0.3,0,0.6-0.1,0.9-0.2l0.2,1.1C95,20.7,94.4,20.9,93.8,20.9z"/>
		<path class="st2" d="M97.3,18.3c0,0.9,0.5,1.4,1.5,1.4c0.6,0,1.2-0.2,1.7-0.5l0.3,1.1c-0.5,0.3-1.3,0.6-2.2,0.6
			c-1.8,0-2.8-1.1-2.8-3c0-1.8,0.9-3,2.7-3c1.7,0,2.4,1.3,2.4,2.7v0.7C100.9,18.3,97.3,18.3,97.3,18.3z M98.4,16.1
			c-0.8,0-1.1,0.7-1.1,1.4h2.1C99.4,16.7,99.2,16.1,98.4,16.1z"/>
		<path class="st2" d="M105.3,16.3c-0.2-0.1-0.5-0.1-0.7-0.1c-0.4,0-0.8,0.2-1,0.4v4.2H102V15h1.1l0.2,0.8h0
			c0.2-0.4,0.7-0.9,1.4-0.9c0.3,0,0.5,0,0.7,0.1L105.3,16.3z"/>
		<path class="st2" d="M106.7,20.8v-4.6L106,16v-1h2.2v5.7H106.7z M106.6,12.7h1.5v1.4h-1.5V12.7z"/>
		<path class="st2" d="M114.7,17.9c0,1.9-1,3-2.7,3c-1.7,0-2.7-1-2.7-3c0-1.7,0.9-3,2.7-3C113.7,14.9,114.7,16.2,114.7,17.9z
			 M113.1,17.9c0-1.4-0.4-1.9-1.1-1.9c-0.7,0-1.1,0.5-1.1,1.9c0,1.3,0.4,1.9,1.1,1.9C112.8,19.8,113.1,19.3,113.1,17.9z"/>
		<path class="st2" d="M122.1,15.5c-0.1-0.3-0.1-0.6-0.1-1v-1.7h1.5v8h-1.2l-0.2-0.6c-0.2,0.3-0.8,0.7-1.5,0.7c-1.3,0-2.3-0.9-2.3-3
			c0-1.9,1.1-3,2.5-3C121.3,14.9,121.8,15.1,122.1,15.5z M122,16.4c-0.2-0.1-0.6-0.3-1-0.3c-0.7,0-1.2,0.5-1.2,1.8
			c0,1.4,0.4,1.9,1.2,1.9c0.4,0,0.8-0.2,1.1-0.5V16.4z"/>
		<path class="st2" d="M126.2,18.3c0,0.9,0.5,1.4,1.5,1.4c0.6,0,1.2-0.2,1.7-0.5l0.3,1.1c-0.5,0.3-1.3,0.6-2.2,0.6
			c-1.8,0-2.8-1.1-2.8-3c0-1.8,0.9-3,2.7-3c1.7,0,2.4,1.3,2.4,2.7v0.7C129.7,18.3,126.2,18.3,126.2,18.3z M127.2,16.1
			c-0.8,0-1.1,0.7-1.1,1.4h2.1C128.3,16.7,128,16.1,127.2,16.1z"/>
		<path class="st2" d="M68.2,31.8v-3.3h-2.9v3.3h-1.5v-7.9h1.5v3.2h2.9v-3.2h1.6v7.9H68.2z"/>
		<path class="st2" d="M74.7,31.8l-0.2-0.7c-0.3,0.4-0.9,0.8-1.7,0.8c-1.1,0-1.9-0.7-1.9-1.8c0-1.1,0.8-1.7,2.2-1.7h1.2v-0.3
			c0-0.7-0.4-1-1-1c-0.7,0-1.2,0.2-1.7,0.4l-0.4-1.1c0.6-0.2,1.4-0.5,2.3-0.5c1.6,0,2.3,0.7,2.3,2.2v3.6
			C75.8,31.8,74.7,31.8,74.7,31.8z M74.3,29.3h-0.9c-0.6,0-0.9,0.3-0.9,0.7c0,0.5,0.3,0.8,0.9,0.8c0.4,0,0.7-0.2,1-0.4L74.3,29.3
			L74.3,29.3z"/>
		<path class="st2" d="M81.6,31.4c-0.3,0.2-1.1,0.5-2,0.5c-1.7,0-2.7-1-2.7-3c0-1.9,1-3,2.7-3c0.8,0,1.4,0.2,2,0.5l-0.4,1
			c-0.4-0.2-0.9-0.3-1.4-0.3c-0.8,0-1.3,0.5-1.3,1.8c0,1.3,0.5,1.8,1.3,1.8c0.6,0,1.2-0.2,1.6-0.4L81.6,31.4z"/>
		<path class="st2" d="M83.1,31.8v-4.6L82.4,27v-1h2.2v5.7H83.1z M83.1,23.7h1.5v1.4h-1.5V23.7z"/>
		<path class="st2" d="M87.3,29.3c0,0.9,0.5,1.4,1.5,1.4c0.6,0,1.2-0.2,1.7-0.5l0.3,1.1c-0.5,0.3-1.3,0.6-2.2,0.6
			c-1.8,0-2.8-1.1-2.8-3c0-1.8,0.9-3,2.7-3c1.7,0,2.4,1.3,2.4,2.7v0.7H87.3z M88.4,27c-0.8,0-1.1,0.7-1.1,1.4h2.1
			C89.4,27.7,89.2,27,88.4,27z"/>
		<path class="st2" d="M95.6,31.8v-3.4c0-0.9-0.3-1.3-1-1.3c-0.4,0-0.7,0.2-1,0.3v4.3H92V26h1l0.2,0.7c0.3-0.4,1-0.8,1.8-0.8
			c1.4,0,2,0.9,2,2.3v3.5C97.1,31.8,95.6,31.8,95.6,31.8z"/>
		<path class="st2" d="M102.1,26.5c-0.1-0.3-0.1-0.6-0.1-1v-1.7h1.5v8h-1.2l-0.2-0.6c-0.2,0.3-0.8,0.7-1.5,0.7c-1.3,0-2.3-0.9-2.3-3
			c0-1.9,1.1-3,2.5-3C101.3,25.9,101.8,26.1,102.1,26.5z M101.9,27.3c-0.2-0.1-0.6-0.3-1-0.3c-0.7,0-1.2,0.5-1.2,1.8
			c0,1.4,0.4,1.9,1.2,1.9c0.4,0,0.8-0.2,1.1-0.5V27.3z"/>
		<path class="st2" d="M108.4,31.8l-0.2-0.7c-0.3,0.4-0.9,0.8-1.7,0.8c-1.1,0-1.9-0.7-1.9-1.8c0-1.1,0.8-1.7,2.2-1.7h1.2v-0.3
			c0-0.7-0.4-1-1-1c-0.7,0-1.2,0.2-1.7,0.4l-0.4-1.1c0.6-0.2,1.4-0.5,2.3-0.5c1.6,0,2.3,0.7,2.3,2.2v3.6
			C109.4,31.8,108.4,31.8,108.4,31.8z M107.9,29.3H107c-0.6,0-0.9,0.3-0.9,0.7c0,0.5,0.3,0.8,0.9,0.8c0.4,0,0.7-0.2,1-0.4V29.3
			L107.9,29.3z"/>
	</g>
</g>
</svg>
