<svg width="396" height="334" viewBox="0 0 396 334" fill="none" xmlns="http://www.w3.org/2000/svg">
<path d="M5.14008 328.864H0V334H5.14008V328.864Z" fill="#F2F2F2"/>
<path d="M25.713 328.864H20.5729V334H25.713V328.864Z" fill="#F2F2F2"/>
<path d="M46.2858 328.864H41.1458V334H46.2858V328.864Z" fill="#F2F2F2"/>
<path d="M66.8525 328.864H61.7124V334H66.8525V328.864Z" fill="#F2F2F2"/>
<path d="M87.4254 328.864H82.2853V334H87.4254V328.864Z" fill="#F2F2F2"/>
<path d="M107.998 328.864H102.858V334H107.998V328.864Z" fill="#F2F2F2"/>
<path d="M128.571 328.864H123.431V334H128.571V328.864Z" fill="#F2F2F2"/>
<path d="M149.144 328.864H144.004V334H149.144V328.864Z" fill="#F2F2F2"/>
<path d="M169.711 328.864H164.571V334H169.711V328.864Z" fill="#F2F2F2"/>
<path d="M190.284 328.864H185.144V334H190.284V328.864Z" fill="#F2F2F2"/>
<path d="M190.284 328.864H185.144V334H190.284V328.864Z" fill="#F2F2F2"/>
<path d="M210.857 328.864H205.716V334H210.857V328.864Z" fill="#F2F2F2"/>
<path d="M231.429 328.864H226.289V334H231.429V328.864Z" fill="#F2F2F2"/>
<path d="M251.996 328.864H246.856V334H251.996V328.864Z" fill="#F2F2F2"/>
<path d="M272.569 328.864H267.429V334H272.569V328.864Z" fill="#F2F2F2"/>
<path d="M293.142 328.864H288.002V334H293.142V328.864Z" fill="#F2F2F2"/>
<path d="M313.715 328.864H308.575V334H313.715V328.864Z" fill="#F2F2F2"/>
<path d="M334.288 328.864H329.148V334H334.288V328.864Z" fill="#F2F2F2"/>
<path d="M354.854 328.864H349.714V334H354.854V328.864Z" fill="#F2F2F2"/>
<path d="M375.427 328.864H370.287V334H375.427V328.864Z" fill="#F2F2F2"/>
<path d="M396 328.864H390.86V334H396V328.864Z" fill="#F2F2F2"/>
<path d="M5.14008 308.309H0V313.445H5.14008V308.309Z" fill="#F2F2F2"/>
<path d="M25.713 308.309H20.5729V313.445H25.713V308.309Z" fill="#F2F2F2"/>
<path d="M46.2858 308.309H41.1458V313.445H46.2858V308.309Z" fill="#F2F2F2"/>
<path d="M66.8525 308.309H61.7124V313.445H66.8525V308.309Z" fill="#F2F2F2"/>
<path d="M87.4254 308.309H82.2853V313.445H87.4254V308.309Z" fill="#F2F2F2"/>
<path d="M107.998 308.309H102.858V313.445H107.998V308.309Z" fill="#F2F2F2"/>
<path d="M128.571 308.309H123.431V313.445H128.571V308.309Z" fill="#F2F2F2"/>
<path d="M149.144 308.309H144.004V313.445H149.144V308.309Z" fill="#F2F2F2"/>
<path d="M169.711 308.309H164.571V313.445H169.711V308.309Z" fill="#F2F2F2"/>
<path d="M190.284 308.309H185.144V313.445H190.284V308.309Z" fill="#F2F2F2"/>
<path d="M190.284 308.309H185.144V313.445H190.284V308.309Z" fill="#F2F2F2"/>
<path d="M210.857 308.309H205.716V313.445H210.857V308.309Z" fill="#F2F2F2"/>
<path d="M231.429 308.309H226.289V313.445H231.429V308.309Z" fill="#F2F2F2"/>
<path d="M251.996 308.309H246.856V313.445H251.996V308.309Z" fill="#F2F2F2"/>
<path d="M272.569 308.309H267.429V313.445H272.569V308.309Z" fill="#F2F2F2"/>
<path d="M293.142 308.309H288.002V313.445H293.142V308.309Z" fill="#F2F2F2"/>
<path d="M313.715 308.309H308.575V313.445H313.715V308.309Z" fill="#F2F2F2"/>
<path d="M334.288 308.309H329.148V313.445H334.288V308.309Z" fill="#F2F2F2"/>
<path d="M354.854 308.309H349.714V313.445H354.854V308.309Z" fill="#F2F2F2"/>
<path d="M375.427 308.309H370.287V313.445H375.427V308.309Z" fill="#F2F2F2"/>
<path d="M396 308.309H390.86V313.445H396V308.309Z" fill="#F2F2F2"/>
<path d="M5.14008 287.754H0V292.89H5.14008V287.754Z" fill="#F2F2F2"/>
<path d="M25.713 287.754H20.5729V292.89H25.713V287.754Z" fill="#F2F2F2"/>
<path d="M46.2858 287.754H41.1458V292.89H46.2858V287.754Z" fill="#F2F2F2"/>
<path d="M66.8525 287.754H61.7124V292.89H66.8525V287.754Z" fill="#F2F2F2"/>
<path d="M87.4254 287.754H82.2853V292.89H87.4254V287.754Z" fill="#F2F2F2"/>
<path d="M107.998 287.754H102.858V292.89H107.998V287.754Z" fill="#F2F2F2"/>
<path d="M128.571 287.754H123.431V292.89H128.571V287.754Z" fill="#F2F2F2"/>
<path d="M149.144 287.754H144.004V292.89H149.144V287.754Z" fill="#F2F2F2"/>
<path d="M169.711 287.754H164.571V292.89H169.711V287.754Z" fill="#F2F2F2"/>
<path d="M190.284 287.754H185.144V292.89H190.284V287.754Z" fill="#F2F2F2"/>
<path d="M190.284 287.754H185.144V292.89H190.284V287.754Z" fill="#F2F2F2"/>
<path d="M210.857 287.754H205.716V292.89H210.857V287.754Z" fill="#F2F2F2"/>
<path d="M231.429 287.754H226.289V292.89H231.429V287.754Z" fill="#F2F2F2"/>
<path d="M251.996 287.754H246.856V292.89H251.996V287.754Z" fill="#F2F2F2"/>
<path d="M272.569 287.754H267.429V292.89H272.569V287.754Z" fill="#F2F2F2"/>
<path d="M293.142 287.754H288.002V292.89H293.142V287.754Z" fill="#F2F2F2"/>
<path d="M313.715 287.754H308.575V292.89H313.715V287.754Z" fill="#F2F2F2"/>
<path d="M334.288 287.754H329.148V292.89H334.288V287.754Z" fill="#F2F2F2"/>
<path d="M354.854 287.754H349.714V292.89H354.854V287.754Z" fill="#F2F2F2"/>
<path d="M375.427 287.754H370.287V292.89H375.427V287.754Z" fill="#F2F2F2"/>
<path d="M396 287.754H390.86V292.89H396V287.754Z" fill="#F2F2F2"/>
<path d="M5.14008 267.199H0V272.334H5.14008V267.199Z" fill="#F2F2F2"/>
<path d="M25.713 267.199H20.5729V272.334H25.713V267.199Z" fill="#F2F2F2"/>
<path d="M46.2858 267.199H41.1458V272.334H46.2858V267.199Z" fill="#F2F2F2"/>
<path d="M66.8525 267.199H61.7124V272.334H66.8525V267.199Z" fill="#F2F2F2"/>
<path d="M87.4254 267.199H82.2853V272.334H87.4254V267.199Z" fill="#F2F2F2"/>
<path d="M107.998 267.199H102.858V272.334H107.998V267.199Z" fill="#F2F2F2"/>
<path d="M128.571 267.199H123.431V272.334H128.571V267.199Z" fill="#F2F2F2"/>
<path d="M149.144 267.199H144.004V272.334H149.144V267.199Z" fill="#F2F2F2"/>
<path d="M169.711 267.199H164.571V272.334H169.711V267.199Z" fill="#F2F2F2"/>
<path d="M190.284 267.199H185.144V272.334H190.284V267.199Z" fill="#F2F2F2"/>
<path d="M190.284 267.199H185.144V272.334H190.284V267.199Z" fill="#F2F2F2"/>
<path d="M210.857 267.199H205.716V272.334H210.857V267.199Z" fill="#F2F2F2"/>
<path d="M231.429 267.199H226.289V272.334H231.429V267.199Z" fill="#F2F2F2"/>
<path d="M251.996 267.199H246.856V272.334H251.996V267.199Z" fill="#F2F2F2"/>
<path d="M272.569 267.199H267.429V272.334H272.569V267.199Z" fill="#F2F2F2"/>
<path d="M293.142 267.199H288.002V272.334H293.142V267.199Z" fill="#F2F2F2"/>
<path d="M313.715 267.199H308.575V272.334H313.715V267.199Z" fill="#F2F2F2"/>
<path d="M334.288 267.199H329.148V272.334H334.288V267.199Z" fill="#F2F2F2"/>
<path d="M354.854 267.199H349.714V272.334H354.854V267.199Z" fill="#F2F2F2"/>
<path d="M375.427 267.199H370.287V272.334H375.427V267.199Z" fill="#F2F2F2"/>
<path d="M396 267.199H390.86V272.334H396V267.199Z" fill="#F2F2F2"/>
<path d="M5.14008 246.644H0V251.779H5.14008V246.644Z" fill="#F2F2F2"/>
<path d="M25.713 246.644H20.5729V251.779H25.713V246.644Z" fill="#F2F2F2"/>
<path d="M46.2858 246.644H41.1458V251.779H46.2858V246.644Z" fill="#F2F2F2"/>
<path d="M66.8525 246.644H61.7124V251.779H66.8525V246.644Z" fill="#F2F2F2"/>
<path d="M87.4254 246.644H82.2853V251.779H87.4254V246.644Z" fill="#F2F2F2"/>
<path d="M107.998 246.644H102.858V251.779H107.998V246.644Z" fill="#F2F2F2"/>
<path d="M128.571 246.644H123.431V251.779H128.571V246.644Z" fill="#F2F2F2"/>
<path d="M149.144 246.644H144.004V251.779H149.144V246.644Z" fill="#F2F2F2"/>
<path d="M169.711 246.644H164.571V251.779H169.711V246.644Z" fill="#F2F2F2"/>
<path d="M190.284 246.644H185.144V251.779H190.284V246.644Z" fill="#F2F2F2"/>
<path d="M190.284 246.644H185.144V251.779H190.284V246.644Z" fill="#F2F2F2"/>
<path d="M210.857 246.644H205.716V251.779H210.857V246.644Z" fill="#F2F2F2"/>
<path d="M231.429 246.644H226.289V251.779H231.429V246.644Z" fill="#F2F2F2"/>
<path d="M251.996 246.644H246.856V251.779H251.996V246.644Z" fill="#F2F2F2"/>
<path d="M272.569 246.644H267.429V251.779H272.569V246.644Z" fill="#F2F2F2"/>
<path d="M293.142 246.644H288.002V251.779H293.142V246.644Z" fill="#F2F2F2"/>
<path d="M313.715 246.644H308.575V251.779H313.715V246.644Z" fill="#F2F2F2"/>
<path d="M334.288 246.644H329.148V251.779H334.288V246.644Z" fill="#F2F2F2"/>
<path d="M354.854 246.644H349.714V251.779H354.854V246.644Z" fill="#F2F2F2"/>
<path d="M375.427 246.644H370.287V251.779H375.427V246.644Z" fill="#F2F2F2"/>
<path d="M396 246.644H390.86V251.779H396V246.644Z" fill="#F2F2F2"/>
<path d="M5.14008 226.095H0V231.23H5.14008V226.095Z" fill="#F2F2F2"/>
<path d="M25.713 226.095H20.5729V231.23H25.713V226.095Z" fill="#F2F2F2"/>
<path d="M46.2858 226.095H41.1458V231.23H46.2858V226.095Z" fill="#F2F2F2"/>
<path d="M66.8525 226.095H61.7124V231.23H66.8525V226.095Z" fill="#F2F2F2"/>
<path d="M87.4254 226.095H82.2853V231.23H87.4254V226.095Z" fill="#F2F2F2"/>
<path d="M107.998 226.095H102.858V231.23H107.998V226.095Z" fill="#F2F2F2"/>
<path d="M128.571 226.095H123.431V231.23H128.571V226.095Z" fill="#F2F2F2"/>
<path d="M149.144 226.095H144.004V231.23H149.144V226.095Z" fill="#F2F2F2"/>
<path d="M169.711 226.095H164.571V231.23H169.711V226.095Z" fill="#F2F2F2"/>
<path d="M190.284 226.095H185.144V231.23H190.284V226.095Z" fill="#F2F2F2"/>
<path d="M190.284 226.095H185.144V231.23H190.284V226.095Z" fill="#F2F2F2"/>
<path d="M210.857 226.095H205.716V231.23H210.857V226.095Z" fill="#F2F2F2"/>
<path d="M231.429 226.095H226.289V231.23H231.429V226.095Z" fill="#F2F2F2"/>
<path d="M251.996 226.095H246.856V231.23H251.996V226.095Z" fill="#F2F2F2"/>
<path d="M272.569 226.095H267.429V231.23H272.569V226.095Z" fill="#F2F2F2"/>
<path d="M293.142 226.095H288.002V231.23H293.142V226.095Z" fill="#F2F2F2"/>
<path d="M313.715 226.095H308.575V231.23H313.715V226.095Z" fill="#F2F2F2"/>
<path d="M334.288 226.095H329.148V231.23H334.288V226.095Z" fill="#F2F2F2"/>
<path d="M354.854 226.095H349.714V231.23H354.854V226.095Z" fill="#F2F2F2"/>
<path d="M375.427 226.095H370.287V231.23H375.427V226.095Z" fill="#F2F2F2"/>
<path d="M396 226.095H390.86V231.23H396V226.095Z" fill="#F2F2F2"/>
<path d="M5.14008 205.539H0V210.675H5.14008V205.539Z" fill="#F2F2F2"/>
<path d="M25.713 205.539H20.5729V210.675H25.713V205.539Z" fill="#F2F2F2"/>
<path d="M46.2858 205.539H41.1458V210.675H46.2858V205.539Z" fill="#F2F2F2"/>
<path d="M66.8525 205.539H61.7124V210.675H66.8525V205.539Z" fill="#F2F2F2"/>
<path d="M87.4254 205.539H82.2853V210.675H87.4254V205.539Z" fill="#F2F2F2"/>
<path d="M107.998 205.539H102.858V210.675H107.998V205.539Z" fill="#F2F2F2"/>
<path d="M128.571 205.539H123.431V210.675H128.571V205.539Z" fill="#F2F2F2"/>
<path d="M149.144 205.539H144.004V210.675H149.144V205.539Z" fill="#F2F2F2"/>
<path d="M169.711 205.539H164.571V210.675H169.711V205.539Z" fill="#F2F2F2"/>
<path d="M190.284 205.539H185.144V210.675H190.284V205.539Z" fill="#F2F2F2"/>
<path d="M190.284 205.539H185.144V210.675H190.284V205.539Z" fill="#F2F2F2"/>
<path d="M210.857 205.539H205.716V210.675H210.857V205.539Z" fill="#F2F2F2"/>
<path d="M231.429 205.539H226.289V210.675H231.429V205.539Z" fill="#F2F2F2"/>
<path d="M251.996 205.539H246.856V210.675H251.996V205.539Z" fill="#F2F2F2"/>
<path d="M272.569 205.539H267.429V210.675H272.569V205.539Z" fill="#F2F2F2"/>
<path d="M293.142 205.539H288.002V210.675H293.142V205.539Z" fill="#F2F2F2"/>
<path d="M313.715 205.539H308.575V210.675H313.715V205.539Z" fill="#F2F2F2"/>
<path d="M334.288 205.539H329.148V210.675H334.288V205.539Z" fill="#F2F2F2"/>
<path d="M354.854 205.539H349.714V210.675H354.854V205.539Z" fill="#F2F2F2"/>
<path d="M375.427 205.539H370.287V210.675H375.427V205.539Z" fill="#F2F2F2"/>
<path d="M396 205.539H390.86V210.675H396V205.539Z" fill="#F2F2F2"/>
<path d="M5.14008 184.984H0V190.12H5.14008V184.984Z" fill="#F2F2F2"/>
<path d="M25.713 184.984H20.5729V190.12H25.713V184.984Z" fill="#F2F2F2"/>
<path d="M46.2858 184.984H41.1458V190.12H46.2858V184.984Z" fill="#F2F2F2"/>
<path d="M66.8525 184.984H61.7124V190.12H66.8525V184.984Z" fill="#F2F2F2"/>
<path d="M87.4254 184.984H82.2853V190.12H87.4254V184.984Z" fill="#F2F2F2"/>
<path d="M107.998 184.984H102.858V190.12H107.998V184.984Z" fill="#F2F2F2"/>
<path d="M128.571 184.984H123.431V190.12H128.571V184.984Z" fill="#F2F2F2"/>
<path d="M149.144 184.984H144.004V190.12H149.144V184.984Z" fill="#F2F2F2"/>
<path d="M169.711 184.984H164.571V190.12H169.711V184.984Z" fill="#F2F2F2"/>
<path d="M190.284 184.984H185.144V190.12H190.284V184.984Z" fill="#F2F2F2"/>
<path d="M190.284 184.984H185.144V190.12H190.284V184.984Z" fill="#F2F2F2"/>
<path d="M210.857 184.984H205.716V190.12H210.857V184.984Z" fill="#F2F2F2"/>
<path d="M231.429 184.984H226.289V190.12H231.429V184.984Z" fill="#F2F2F2"/>
<path d="M251.996 184.984H246.856V190.12H251.996V184.984Z" fill="#F2F2F2"/>
<path d="M272.569 184.984H267.429V190.12H272.569V184.984Z" fill="#F2F2F2"/>
<path d="M293.142 184.984H288.002V190.12H293.142V184.984Z" fill="#F2F2F2"/>
<path d="M313.715 184.984H308.575V190.12H313.715V184.984Z" fill="#F2F2F2"/>
<path d="M334.288 184.984H329.148V190.12H334.288V184.984Z" fill="#F2F2F2"/>
<path d="M354.854 184.984H349.714V190.12H354.854V184.984Z" fill="#F2F2F2"/>
<path d="M375.427 184.984H370.287V190.12H375.427V184.984Z" fill="#F2F2F2"/>
<path d="M396 184.984H390.86V190.12H396V184.984Z" fill="#F2F2F2"/>
<path d="M5.14008 164.429H0V169.565H5.14008V164.429Z" fill="#F2F2F2"/>
<path d="M25.713 164.429H20.5729V169.565H25.713V164.429Z" fill="#F2F2F2"/>
<path d="M46.2858 164.429H41.1458V169.565H46.2858V164.429Z" fill="#F2F2F2"/>
<path d="M66.8525 164.429H61.7124V169.565H66.8525V164.429Z" fill="#F2F2F2"/>
<path d="M87.4254 164.429H82.2853V169.565H87.4254V164.429Z" fill="#F2F2F2"/>
<path d="M107.998 164.429H102.858V169.565H107.998V164.429Z" fill="#F2F2F2"/>
<path d="M128.571 164.429H123.431V169.565H128.571V164.429Z" fill="#F2F2F2"/>
<path d="M149.144 164.429H144.004V169.565H149.144V164.429Z" fill="#F2F2F2"/>
<path d="M169.711 164.429H164.571V169.565H169.711V164.429Z" fill="#F2F2F2"/>
<path d="M190.284 164.429H185.144V169.565H190.284V164.429Z" fill="#F2F2F2"/>
<path d="M190.284 164.429H185.144V169.565H190.284V164.429Z" fill="#F2F2F2"/>
<path d="M210.857 164.429H205.716V169.565H210.857V164.429Z" fill="#F2F2F2"/>
<path d="M231.429 164.429H226.289V169.565H231.429V164.429Z" fill="#F2F2F2"/>
<path d="M251.996 164.429H246.856V169.565H251.996V164.429Z" fill="#F2F2F2"/>
<path d="M272.569 164.429H267.429V169.565H272.569V164.429Z" fill="#F2F2F2"/>
<path d="M293.142 164.429H288.002V169.565H293.142V164.429Z" fill="#F2F2F2"/>
<path d="M313.715 164.429H308.575V169.565H313.715V164.429Z" fill="#F2F2F2"/>
<path d="M334.288 164.429H329.148V169.565H334.288V164.429Z" fill="#F2F2F2"/>
<path d="M354.854 164.429H349.714V169.565H354.854V164.429Z" fill="#F2F2F2"/>
<path d="M375.427 164.429H370.287V169.565H375.427V164.429Z" fill="#F2F2F2"/>
<path d="M396 164.429H390.86V169.565H396V164.429Z" fill="#F2F2F2"/>
<path d="M5.14008 143.88H0V149.016H5.14008V143.88Z" fill="#F2F2F2"/>
<path d="M25.713 143.88H20.5729V149.016H25.713V143.88Z" fill="#F2F2F2"/>
<path d="M46.2858 143.88H41.1458V149.016H46.2858V143.88Z" fill="#F2F2F2"/>
<path d="M66.8525 143.88H61.7124V149.016H66.8525V143.88Z" fill="#F2F2F2"/>
<path d="M87.4254 143.88H82.2853V149.016H87.4254V143.88Z" fill="#F2F2F2"/>
<path d="M107.998 143.88H102.858V149.016H107.998V143.88Z" fill="#F2F2F2"/>
<path d="M128.571 143.88H123.431V149.016H128.571V143.88Z" fill="#F2F2F2"/>
<path d="M149.144 143.88H144.004V149.016H149.144V143.88Z" fill="#F2F2F2"/>
<path d="M169.711 143.88H164.571V149.016H169.711V143.88Z" fill="#F2F2F2"/>
<path d="M190.284 143.88H185.144V149.016H190.284V143.88Z" fill="#F2F2F2"/>
<path d="M190.284 143.88H185.144V149.016H190.284V143.88Z" fill="#F2F2F2"/>
<path d="M210.857 143.88H205.716V149.016H210.857V143.88Z" fill="#F2F2F2"/>
<path d="M231.429 143.88H226.289V149.016H231.429V143.88Z" fill="#F2F2F2"/>
<path d="M251.996 143.88H246.856V149.016H251.996V143.88Z" fill="#F2F2F2"/>
<path d="M272.569 143.88H267.429V149.016H272.569V143.88Z" fill="#F2F2F2"/>
<path d="M293.142 143.88H288.002V149.016H293.142V143.88Z" fill="#F2F2F2"/>
<path d="M313.715 143.88H308.575V149.016H313.715V143.88Z" fill="#F2F2F2"/>
<path d="M334.288 143.88H329.148V149.016H334.288V143.88Z" fill="#F2F2F2"/>
<path d="M354.854 143.88H349.714V149.016H354.854V143.88Z" fill="#F2F2F2"/>
<path d="M375.427 143.88H370.287V149.016H375.427V143.88Z" fill="#F2F2F2"/>
<path d="M396 143.88H390.86V149.016H396V143.88Z" fill="#F2F2F2"/>
<path d="M5.14008 123.325H0V128.461H5.14008V123.325Z" fill="#F2F2F2"/>
<path d="M25.713 123.325H20.5729V128.461H25.713V123.325Z" fill="#F2F2F2"/>
<path d="M46.2858 123.325H41.1458V128.461H46.2858V123.325Z" fill="#F2F2F2"/>
<path d="M66.8525 123.325H61.7124V128.461H66.8525V123.325Z" fill="#F2F2F2"/>
<path d="M87.4254 123.325H82.2853V128.461H87.4254V123.325Z" fill="#F2F2F2"/>
<path d="M107.998 123.325H102.858V128.461H107.998V123.325Z" fill="#F2F2F2"/>
<path d="M128.571 123.325H123.431V128.461H128.571V123.325Z" fill="#F2F2F2"/>
<path d="M149.144 123.325H144.004V128.461H149.144V123.325Z" fill="#F2F2F2"/>
<path d="M169.711 123.325H164.571V128.461H169.711V123.325Z" fill="#F2F2F2"/>
<path d="M190.284 123.325H185.144V128.461H190.284V123.325Z" fill="#F2F2F2"/>
<path d="M190.284 123.325H185.144V128.461H190.284V123.325Z" fill="#F2F2F2"/>
<path d="M210.857 123.325H205.716V128.461H210.857V123.325Z" fill="#F2F2F2"/>
<path d="M231.429 123.325H226.289V128.461H231.429V123.325Z" fill="#F2F2F2"/>
<path d="M251.996 123.325H246.856V128.461H251.996V123.325Z" fill="#F2F2F2"/>
<path d="M272.569 123.325H267.429V128.461H272.569V123.325Z" fill="#F2F2F2"/>
<path d="M293.142 123.325H288.002V128.461H293.142V123.325Z" fill="#F2F2F2"/>
<path d="M313.715 123.325H308.575V128.461H313.715V123.325Z" fill="#F2F2F2"/>
<path d="M334.288 123.325H329.148V128.461H334.288V123.325Z" fill="#F2F2F2"/>
<path d="M354.854 123.325H349.714V128.461H354.854V123.325Z" fill="#F2F2F2"/>
<path d="M375.427 123.325H370.287V128.461H375.427V123.325Z" fill="#F2F2F2"/>
<path d="M396 123.325H390.86V128.461H396V123.325Z" fill="#F2F2F2"/>
<path d="M5.14008 102.77H0V107.905H5.14008V102.77Z" fill="#F2F2F2"/>
<path d="M25.713 102.77H20.5729V107.905H25.713V102.77Z" fill="#F2F2F2"/>
<path d="M46.2858 102.77H41.1458V107.905H46.2858V102.77Z" fill="#F2F2F2"/>
<path d="M66.8525 102.77H61.7124V107.905H66.8525V102.77Z" fill="#F2F2F2"/>
<path d="M87.4254 102.77H82.2853V107.905H87.4254V102.77Z" fill="#F2F2F2"/>
<path d="M107.998 102.77H102.858V107.905H107.998V102.77Z" fill="#F2F2F2"/>
<path d="M128.571 102.77H123.431V107.905H128.571V102.77Z" fill="#F2F2F2"/>
<path d="M149.144 102.77H144.004V107.905H149.144V102.77Z" fill="#F2F2F2"/>
<path d="M169.711 102.77H164.571V107.905H169.711V102.77Z" fill="#F2F2F2"/>
<path d="M190.284 102.77H185.144V107.905H190.284V102.77Z" fill="#F2F2F2"/>
<path d="M190.284 102.77H185.144V107.905H190.284V102.77Z" fill="#F2F2F2"/>
<path d="M210.857 102.77H205.716V107.905H210.857V102.77Z" fill="#F2F2F2"/>
<path d="M231.429 102.77H226.289V107.905H231.429V102.77Z" fill="#F2F2F2"/>
<path d="M251.996 102.77H246.856V107.905H251.996V102.77Z" fill="#F2F2F2"/>
<path d="M272.569 102.77H267.429V107.905H272.569V102.77Z" fill="#F2F2F2"/>
<path d="M293.142 102.77H288.002V107.905H293.142V102.77Z" fill="#F2F2F2"/>
<path d="M313.715 102.77H308.575V107.905H313.715V102.77Z" fill="#F2F2F2"/>
<path d="M334.288 102.77H329.148V107.905H334.288V102.77Z" fill="#F2F2F2"/>
<path d="M354.854 102.77H349.714V107.905H354.854V102.77Z" fill="#F2F2F2"/>
<path d="M375.427 102.77H370.287V107.905H375.427V102.77Z" fill="#F2F2F2"/>
<path d="M396 102.77H390.86V107.905H396V102.77Z" fill="#F2F2F2"/>
<path d="M5.14008 82.2145H0V87.3502H5.14008V82.2145Z" fill="#F2F2F2"/>
<path d="M25.713 82.2145H20.5729V87.3502H25.713V82.2145Z" fill="#F2F2F2"/>
<path d="M46.2858 82.2145H41.1458V87.3502H46.2858V82.2145Z" fill="#F2F2F2"/>
<path d="M66.8525 82.2145H61.7124V87.3502H66.8525V82.2145Z" fill="#F2F2F2"/>
<path d="M87.4254 82.2145H82.2853V87.3502H87.4254V82.2145Z" fill="#F2F2F2"/>
<path d="M107.998 82.2145H102.858V87.3502H107.998V82.2145Z" fill="#F2F2F2"/>
<path d="M128.571 82.2145H123.431V87.3502H128.571V82.2145Z" fill="#F2F2F2"/>
<path d="M149.144 82.2145H144.004V87.3502H149.144V82.2145Z" fill="#F2F2F2"/>
<path d="M169.711 82.2145H164.571V87.3502H169.711V82.2145Z" fill="#F2F2F2"/>
<path d="M190.284 82.2145H185.144V87.3502H190.284V82.2145Z" fill="#F2F2F2"/>
<path d="M190.284 82.2145H185.144V87.3502H190.284V82.2145Z" fill="#F2F2F2"/>
<path d="M210.857 82.2145H205.716V87.3502H210.857V82.2145Z" fill="#F2F2F2"/>
<path d="M231.429 82.2145H226.289V87.3502H231.429V82.2145Z" fill="#F2F2F2"/>
<path d="M251.996 82.2145H246.856V87.3502H251.996V82.2145Z" fill="#F2F2F2"/>
<path d="M272.569 82.2145H267.429V87.3502H272.569V82.2145Z" fill="#F2F2F2"/>
<path d="M293.142 82.2145H288.002V87.3502H293.142V82.2145Z" fill="#F2F2F2"/>
<path d="M313.715 82.2145H308.575V87.3502H313.715V82.2145Z" fill="#F2F2F2"/>
<path d="M334.288 82.2145H329.148V87.3502H334.288V82.2145Z" fill="#F2F2F2"/>
<path d="M354.854 82.2145H349.714V87.3502H354.854V82.2145Z" fill="#F2F2F2"/>
<path d="M375.427 82.2145H370.287V87.3502H375.427V82.2145Z" fill="#F2F2F2"/>
<path d="M396 82.2145H390.86V87.3502H396V82.2145Z" fill="#F2F2F2"/>
<path d="M5.14008 61.6593H0V66.795H5.14008V61.6593Z" fill="#F2F2F2"/>
<path d="M25.713 61.6593H20.5729V66.795H25.713V61.6593Z" fill="#F2F2F2"/>
<path d="M46.2858 61.6593H41.1458V66.795H46.2858V61.6593Z" fill="#F2F2F2"/>
<path d="M66.8525 61.6593H61.7124V66.795H66.8525V61.6593Z" fill="#F2F2F2"/>
<path d="M87.4254 61.6593H82.2853V66.795H87.4254V61.6593Z" fill="#F2F2F2"/>
<path d="M107.998 61.6593H102.858V66.795H107.998V61.6593Z" fill="#F2F2F2"/>
<path d="M128.571 61.6593H123.431V66.795H128.571V61.6593Z" fill="#F2F2F2"/>
<path d="M149.144 61.6593H144.004V66.795H149.144V61.6593Z" fill="#F2F2F2"/>
<path d="M169.711 61.6593H164.571V66.795H169.711V61.6593Z" fill="#F2F2F2"/>
<path d="M190.284 61.6593H185.144V66.795H190.284V61.6593Z" fill="#F2F2F2"/>
<path d="M190.284 61.6593H185.144V66.795H190.284V61.6593Z" fill="#F2F2F2"/>
<path d="M210.857 61.6593H205.716V66.795H210.857V61.6593Z" fill="#F2F2F2"/>
<path d="M231.429 61.6593H226.289V66.795H231.429V61.6593Z" fill="#F2F2F2"/>
<path d="M251.996 61.6593H246.856V66.795H251.996V61.6593Z" fill="#F2F2F2"/>
<path d="M272.569 61.6593H267.429V66.795H272.569V61.6593Z" fill="#F2F2F2"/>
<path d="M293.142 61.6593H288.002V66.795H293.142V61.6593Z" fill="#F2F2F2"/>
<path d="M313.715 61.6593H308.575V66.795H313.715V61.6593Z" fill="#F2F2F2"/>
<path d="M334.288 61.6593H329.148V66.795H334.288V61.6593Z" fill="#F2F2F2"/>
<path d="M354.854 61.6593H349.714V66.795H354.854V61.6593Z" fill="#F2F2F2"/>
<path d="M375.427 61.6593H370.287V66.795H375.427V61.6593Z" fill="#F2F2F2"/>
<path d="M396 61.6593H390.86V66.795H396V61.6593Z" fill="#F2F2F2"/>
<path d="M5.14008 41.1104H0V46.2461H5.14008V41.1104Z" fill="#F2F2F2"/>
<path d="M25.713 41.1104H20.5729V46.2461H25.713V41.1104Z" fill="#F2F2F2"/>
<path d="M46.2858 41.1104H41.1458V46.2461H46.2858V41.1104Z" fill="#F2F2F2"/>
<path d="M66.8525 41.1104H61.7124V46.2461H66.8525V41.1104Z" fill="#F2F2F2"/>
<path d="M87.4254 41.1104H82.2853V46.2461H87.4254V41.1104Z" fill="#F2F2F2"/>
<path d="M107.998 41.1104H102.858V46.2461H107.998V41.1104Z" fill="#F2F2F2"/>
<path d="M128.571 41.1104H123.431V46.2461H128.571V41.1104Z" fill="#F2F2F2"/>
<path d="M149.144 41.1104H144.004V46.2461H149.144V41.1104Z" fill="#F2F2F2"/>
<path d="M169.711 41.1104H164.571V46.2461H169.711V41.1104Z" fill="#F2F2F2"/>
<path d="M190.284 41.1104H185.144V46.2461H190.284V41.1104Z" fill="#F2F2F2"/>
<path d="M190.284 41.1104H185.144V46.2461H190.284V41.1104Z" fill="#F2F2F2"/>
<path d="M210.857 41.1104H205.716V46.2461H210.857V41.1104Z" fill="#F2F2F2"/>
<path d="M231.429 41.1104H226.289V46.2461H231.429V41.1104Z" fill="#F2F2F2"/>
<path d="M251.996 41.1104H246.856V46.2461H251.996V41.1104Z" fill="#F2F2F2"/>
<path d="M272.569 41.1104H267.429V46.2461H272.569V41.1104Z" fill="#F2F2F2"/>
<path d="M293.142 41.1104H288.002V46.2461H293.142V41.1104Z" fill="#F2F2F2"/>
<path d="M313.715 41.1104H308.575V46.2461H313.715V41.1104Z" fill="#F2F2F2"/>
<path d="M334.288 41.1104H329.148V46.2461H334.288V41.1104Z" fill="#F2F2F2"/>
<path d="M354.854 41.1104H349.714V46.2461H354.854V41.1104Z" fill="#F2F2F2"/>
<path d="M375.427 41.1104H370.287V46.2461H375.427V41.1104Z" fill="#F2F2F2"/>
<path d="M396 41.1104H390.86V46.2461H396V41.1104Z" fill="#F2F2F2"/>
<path d="M5.14008 20.5552H0V25.6909H5.14008V20.5552Z" fill="#F2F2F2"/>
<path d="M25.713 20.5552H20.5729V25.6909H25.713V20.5552Z" fill="#F2F2F2"/>
<path d="M46.2858 20.5552H41.1458V25.6909H46.2858V20.5552Z" fill="#F2F2F2"/>
<path d="M66.8525 20.5552H61.7124V25.6909H66.8525V20.5552Z" fill="#F2F2F2"/>
<path d="M87.4254 20.5552H82.2853V25.6909H87.4254V20.5552Z" fill="#F2F2F2"/>
<path d="M107.998 20.5552H102.858V25.6909H107.998V20.5552Z" fill="#F2F2F2"/>
<path d="M128.571 20.5552H123.431V25.6909H128.571V20.5552Z" fill="#F2F2F2"/>
<path d="M149.144 20.5552H144.004V25.6909H149.144V20.5552Z" fill="#F2F2F2"/>
<path d="M169.711 20.5552H164.571V25.6909H169.711V20.5552Z" fill="#F2F2F2"/>
<path d="M190.284 20.5552H185.144V25.6909H190.284V20.5552Z" fill="#F2F2F2"/>
<path d="M190.284 20.5552H185.144V25.6909H190.284V20.5552Z" fill="#F2F2F2"/>
<path d="M210.857 20.5552H205.716V25.6909H210.857V20.5552Z" fill="#F2F2F2"/>
<path d="M231.429 20.5552H226.289V25.6909H231.429V20.5552Z" fill="#F2F2F2"/>
<path d="M251.996 20.5552H246.856V25.6909H251.996V20.5552Z" fill="#F2F2F2"/>
<path d="M272.569 20.5552H267.429V25.6909H272.569V20.5552Z" fill="#F2F2F2"/>
<path d="M293.142 20.5552H288.002V25.6909H293.142V20.5552Z" fill="#F2F2F2"/>
<path d="M313.715 20.5552H308.575V25.6909H313.715V20.5552Z" fill="#F2F2F2"/>
<path d="M334.288 20.5552H329.148V25.6909H334.288V20.5552Z" fill="#F2F2F2"/>
<path d="M354.854 20.5552H349.714V25.6909H354.854V20.5552Z" fill="#F2F2F2"/>
<path d="M375.427 20.5552H370.287V25.6909H375.427V20.5552Z" fill="#F2F2F2"/>
<path d="M396 20.5552H390.86V25.6909H396V20.5552Z" fill="#F2F2F2"/>
<path d="M5.14008 0H0V5.13566H5.14008V0Z" fill="#F2F2F2"/>
<path d="M25.713 0H20.5729V5.13566H25.713V0Z" fill="#F2F2F2"/>
<path d="M46.2858 0H41.1458V5.13566H46.2858V0Z" fill="#F2F2F2"/>
<path d="M66.8525 0H61.7124V5.13566H66.8525V0Z" fill="#F2F2F2"/>
<path d="M87.4254 0H82.2853V5.13566H87.4254V0Z" fill="#F2F2F2"/>
<path d="M107.998 0H102.858V5.13566H107.998V0Z" fill="#F2F2F2"/>
<path d="M128.571 0H123.431V5.13566H128.571V0Z" fill="#F2F2F2"/>
<path d="M149.144 0H144.004V5.13566H149.144V0Z" fill="#F2F2F2"/>
<path d="M169.711 0H164.571V5.13566H169.711V0Z" fill="#F2F2F2"/>
<path d="M190.284 0H185.144V5.13566H190.284V0Z" fill="#F2F2F2"/>
<path d="M190.284 0H185.144V5.13566H190.284V0Z" fill="#F2F2F2"/>
<path d="M210.857 0H205.716V5.13566H210.857V0Z" fill="#F2F2F2"/>
<path d="M231.429 0H226.289V5.13566H231.429V0Z" fill="#F2F2F2"/>
<path d="M251.996 0H246.856V5.13566H251.996V0Z" fill="#F2F2F2"/>
<path d="M272.569 0H267.429V5.13566H272.569V0Z" fill="#F2F2F2"/>
<path d="M293.142 0H288.002V5.13566H293.142V0Z" fill="#F2F2F2"/>
<path d="M313.715 0H308.575V5.13566H313.715V0Z" fill="#F2F2F2"/>
<path d="M334.288 0H329.148V5.13566H334.288V0Z" fill="#F2F2F2"/>
<path d="M354.854 0H349.714V5.13566H354.854V0Z" fill="#F2F2F2"/>
<path d="M375.427 0H370.287V5.13566H375.427V0Z" fill="#F2F2F2"/>
<path d="M396 0H390.86V5.13566H396V0Z" fill="#F2F2F2"/>
</svg>
