<svg width="20" height="15" viewBox="0 0 20 15" fill="none" xmlns="http://www.w3.org/2000/svg">
<path d="M19.15 2.0125C18.6075 1.0475 18.0188 0.87 16.82 0.8025C15.6225 0.72125 12.6112 0.6875 10.0025 0.6875C7.38875 0.6875 4.37625 0.72125 3.18 0.80125C1.98375 0.87 1.39375 1.04625 0.84625 2.0125C0.2875 2.97625 0 4.63625 0 7.55875C0 7.56125 0 7.5625 0 7.5625C0 7.565 0 7.56625 0 7.56625V7.56875C0 10.4788 0.2875 12.1512 0.84625 13.105C1.39375 14.07 1.9825 14.245 3.17875 14.3263C4.37625 14.3963 7.38875 14.4375 10.0025 14.4375C12.6112 14.4375 15.6225 14.3962 16.8212 14.3275C18.02 14.2462 18.6087 14.0713 19.1513 13.1063C19.715 12.1525 20 10.48 20 7.57C20 7.57 20 7.56625 20 7.56375C20 7.56375 20 7.56125 20 7.56C20 4.63625 19.715 2.97625 19.15 2.0125ZM7.5 11.3125V3.8125L13.75 7.5625L7.5 11.3125Z" fill="black"/>
</svg>
